<?xml version="1.0" encoding="utf-8"?>
<svg version="1.1" xmlns:xlink="http://www.w3.org/1999/xlink" width="42px" height="17px" xmlns="http://www.w3.org/2000/svg">
  <g transform="matrix(1 0 0 1 -119 -236 )">
    <path d="M 41.9315344301926 5.05060787096359  C 41.9315344301926 4.70620418454162  41.6811445836576 4.41394015983822  41.3441349499658 4.36490064118181  L 36.6945155589417 3.69300336259522  C 35.8466994982159 3.1659698068235  34.9668535750579 2.69417620013259  34.0597126895376 2.28015897729605  C 31.0639473974328 0.907053465016721  27.8125004248991 0.198517456472452  24.5234531108742 0.202181379973259  L 23.7157440573052 0.202181379973259  C 19.8342839317222 0.204999704966129  16.0149337991618 1.19058055237214  12.6058442514338 3.06901818608783  L 10.2593100013173 4.36433700504325  C 7.51254197163346 4.39562075878438  4.81869277999744 5.1348768849312  2.43233009658785 6.51136443049202  C 1.46252207031726 7.07419111771351  0.863703236361761 8.11839394748179  0.862032114034452 9.24940222599126  L 0.862032114034452 13.3622365143356  C 0.862032114034452 13.7449699112809  1.16840454070935 14.0549897008996  1.54663519180829 14.0549897008996  L 3.84498550394703 14.0549897008996  C 4.59253415373257 16.2130087525507  6.92737058320849 17.3493719351267  9.06000117542837 16.5929238245032  C 10.2339646281943 16.1766519128123  11.1567026554363 15.2426470188363  11.5680773218202 14  L 29.8557259904328 14  C 30.6032747115196 16.2130087525507  32.9381111409955 17.3493719351267  35.0707417332154 16.5929238245032  C 36.2444266121175 16.1766519128123  37.1674432132232 15.2426470188363  37.578817808306 14.0549897008996  L 37.8244728260723 14.0549897008996  C 37.9116496896553 14.0549897008996  37.9979909742495 14.0383613525615  38.0790404249497 14.0056683641739  L 40.2960627125244 13.1054838030126  C 41.286481211848 12.7086585646528  41.9351551774099 11.7385787211577  41.9315344301926 10.6611192668633  L 41.9315344301926 5.05060787096359  Z M 10.4448046153001 12.6697652179908  C 10.4448046153001 12.855777048472  10.4261437314865 13.0415069887339  10.3893790402855 13.2238549678643  C 10.0866273608278 14.7229412379161  8.64027100435969 15.6899209383491  7.15882104336729 15.3835650722312  C 5.67709257981232 15.0772092061133  4.72148911114922 13.613634321592  5.0242407906069 12.1142662334709  C 5.32727097262717 10.615179963419  6.77362732909527 9.64820026298614  8.25507729008766 9.95455612910402  C 9.52986508761783 10.2180729069899  10.4450831178627 11.3530269270694  10.4448046153001 12.6697652179908  Z M 22.7657109963999 6  L 22.7657109963999 12.6697652179908  L 11.8137322682853 12.6697652179908  C 11.8137322682853 10.3744919642957  9.97521920567329 8.51380995119519  7.70694916672748 8.51380995119519  C 5.43867912778168 8.51380995119519  3.59988756260711 10.3744919642957  3.59988756260711 12.6697652179908  L 2.23095983832078 12.6697652179908  L 2.23095983832078 9.24940222599126  C 2.23179541730975 8.6149891315702  2.56769096944998 8.02905184751693  3.11191984303037 7.71395911620109  C 5.34565328257704 6.42343156517363  7.8729473179077 5.74420658388553  10.4448046153001 6  L 22.7657109963999 6  Z M 22.7657109963999 1.61784409026527  L 22.7657109963999 4.35813657461884  L 13.12946258066 4.35813657461884  L 13.2614812801687 4.28514100492282  C 15.3583944608017 3.13201314911301  17.62176367241 2.33674282243294  19.9604942280197 1.92494115831179  C 20.8856532377914 1.76203995582532  21.8226051585583 1.65914580160657  22.7657109963999 1.61784409026527  Z M 24.1346387206862 4.35813657461884  L 24.1346387206862 1.587405790732  L 24.5220605267601 1.587405790732  C 27.2805264483857 1.58430564766984  30.0139255707522 2.11415752843443  32.5760345654421 3.14877782234683  L 31.3809036344981 4.35813657461884  L 24.1346387206862 4.35813657461884  Z M 36.4555451017859 12.6697652179908  C 36.4555451017859 12.855777048472  36.4368842179723 13.0415069887339  36.4001195267713 13.2238549678643  C 36.0973678473136 14.7229412379161  34.6510114908455 15.6899209383491  33.1692830272905 15.3835650722312  C 31.6878330662981 15.0772092061133  30.7322296689362 13.613634321592  31.0349812770927 12.1142662334709  C 31.3377329565504 10.615179963419  32.7843678868823 9.64820026298614  34.2658177765735 9.95455612910402  C 35.5406056454048 10.2180729069899  36.4558236043485 11.3530269270694  36.4555451017859 12.6697652179908  Z M 40.5626067059063 5.65091881450064  L 40.5626067059063 6.43583235387239  L 38.5090759038461 6.43583235387239  L 38.5090759038461 7.82133865485046  L 40.5626067059063 7.82133865485046  L 40.5626067059063 10.6611192668633  C 40.5642778638842 11.1715244742969  40.2567913556578 11.6309172922891  39.7877630224573 11.8183383574167  L 37.8244728260723 12.6162163216258  C 37.8244728260723 12.5525213975663  37.8163956813476 12.4893901096454  37.8122178577041 12.4256951134359  C 37.8080401053617 12.3620001893765  37.8066475212476 12.2873136391148  37.7999630319383 12.2179819207695  C 37.7929999687652 12.1486502024242  37.7793524875841 12.0793185562289  37.7684901746312 12.010268728103  C 37.7573493591158 11.9409370097577  37.7492722856924 11.8716053635624  37.7356248045112 11.8087558937109  C 37.7219773233301 11.74562460579  37.7019238554023 11.6757292513061  37.6840985505776 11.6097795662423  C 37.6662732457529 11.5441117713978  37.6526256932705 11.4775984501954  37.6320152202175 11.4130579997781  C 37.6116831784259 11.3487993674301  37.5868948817294 11.2870772420056  37.5637777430107 11.2239459540847  C 37.5403819591271 11.1610964842331  37.5192144809489 11.0959923976773  37.4952616919401 11.0334247458949  C 37.4713089029312 10.9711389843319  37.4390006092377 10.9144899449047  37.4103129914601 10.8555862166232  C 37.3816253736825 10.7966824161916  37.3534948323313 10.7321419657743  37.321464969899 10.6726745292041  C 37.2891566049042 10.613207092634  37.2529489188284 10.5624766655619  37.222033209249 10.5072367164811  C 37.1913959309309 10.451715021481  37.1537957320421 10.3885837335601  37.1148028064368 10.3319346941329  C 37.0755314495702 10.2750037644864  37.0393238347956 10.2301918776194  37.0017235646056 10.1788976701086  C 36.9641232944157 10.1276035347479  36.9215096928943 10.0672905718199  36.8777820098215 10.0140235656742  C 36.8340542554474 9.96075655952842  36.7931118119041 9.91904481572355  36.7504982103828 9.87536020113363  C 36.7081631114241 9.83195747676304  36.6608146098328 9.77305367633147  36.6137446821053 9.72457786596365  C 36.5663961805141 9.67610205559583  36.5198832579117 9.63777234507242  36.4728133301843 9.59493325684039  C 36.4254648998942 9.55209416860836  36.3747741536483 9.50136366938623  36.3226908945895 9.45626989229987  C 36.270886066792 9.4114579332828  36.2179672287442 9.37679214626019  36.1661624009468 9.33733509130965  C 36.1140790705867 9.29787803635911  36.0619958115279 9.25560258426562  36.007405744201 9.2186821083887  C 35.9525372456127 9.18204337843103  35.8909842577151 9.1496322081127  35.8322164380458 9.11073886145074  C 35.773170115814 9.07184544263876  35.7252646090975 9.04140714310547  35.6698391053841 9.01181436993006  C 35.6144135303694 8.98193977868536  35.5453404741736 8.95065595279421  35.4823948308607 8.92021765326092  C 35.419449258849 8.88977935372763  35.3701510967172 8.86272308747582  35.3119403534743 8.83792151007832  C 35.2537296102314 8.81283811461155  35.1749083226343 8.78662730256761  35.1066708454274 8.76182572517011  C 35.0381547943568 8.73674232970334  34.993591532295 8.71729565637236  34.9353807890521 8.69869443724922  C 34.8573950804439 8.67445656814033  34.7774597112952 8.65698269344434  34.6978029160104 8.6369723839748  C 34.6457195856503 8.62457152312601  34.5958644896946 8.60794324693796  34.5432240829082 8.59695162073564  C 34.4591109614171 8.57947774603968  34.3727696055218 8.56989535448384  34.2872638286154 8.55721274771583  C 34.2365731536707 8.55044868115286  34.1881106418291 8.53917523688127  34.1374198955832 8.53438396895332  C 34.0003878647431 8.52057401775813  33.8636343364657 8.51296449698735  33.7199178163164 8.51296449698735  C 31.4524833563595 8.51521918584166  29.6150843752991 10.3744919642957  29.612856212196 12.6689196916329  L 24.1349172232488 12.6689196916329  L 24.1349172232488 5.74307916730832  L 31.6641588511531 5.74307916730832  C 31.8457541440549 5.74307916730832  32.0198293686586 5.67008366976232  32.1479487470862 5.54015717041976  L 33.9229592325614 3.74401567988664  C 34.6680012166812 4.10279309794244  35.3924327277481 4.5038458237916  36.0929115211074 4.94520120309927  C 36.173682469245 4.99621352039069  36.2639230749202 5.02975203513617  36.3583415042389 5.04356198633135  L 40.5626067059063 5.65091881450064  Z " fill-rule="nonzero" fill="#000000" stroke="none" transform="matrix(1 0 0 1 119 236 )" />
  </g>
</svg>